<svg width="512" height="512" viewBox="0 0 512 512" fill="none" xmlns="http://www.w3.org/2000/svg">
<g clip-path="url(#clip0_1_2)">
<rect width="512" height="512" fill="white"/>
<path d="M256 499.89C390.697 499.89 499.89 390.697 499.89 256C499.89 121.303 390.697 12.11 256 12.11C121.303 12.11 12.11 121.303 12.11 256C12.11 390.697 121.303 499.89 256 499.89Z" fill="#2E71EA"/>
<path d="M297.76 292.3C274.07 258.15 261.57 218.15 261.57 176.34V134.6H290.76C293.84 134.6 296.33 132.1 296.33 129.03C296.33 125.96 293.83 123.46 290.76 123.46H261.57V89.05C261.57 85.97 259.07 83.48 256 83.48C252.93 83.48 250.43 85.98 250.43 89.05V123.46H221.24C218.16 123.46 215.67 125.96 215.67 129.03C215.67 132.1 218.17 134.6 221.24 134.6H250.43V176.34C250.43 218.14 237.93 258.15 214.24 292.3C193.93 287.03 172.92 284.35 151.7 284.35C126.93 284.35 102.5 287.98 79.09 295.14C76.15 296.04 74.49 299.16 75.39 302.1C76.29 305.04 79.41 306.7 82.35 305.8C104.71 298.96 128.04 295.5 151.7 295.5C173.23 295.5 194.55 298.38 215.06 304.06C225 306.81 234.82 310.24 244.26 314.24C247.27 315.52 250.32 316.89 253.6 318.45C254.36 318.81 255.18 318.99 255.99 318.99C256.8 318.99 257.63 318.81 258.38 318.45C261.66 316.89 264.72 315.51 267.72 314.24C277.16 310.24 286.99 306.81 296.92 304.06C317.43 298.38 338.75 295.5 360.28 295.5C383.94 295.5 407.27 298.97 429.63 305.8C432.57 306.7 435.69 305.04 436.59 302.1C437.49 299.16 435.83 296.04 432.89 295.14C409.47 287.98 385.04 284.35 360.28 284.35C339.07 284.35 318.05 287.02 297.74 292.3H297.76ZM263.38 303.98C260.97 305 258.54 306.08 256 307.26C253.46 306.08 251.03 305 248.62 303.98C241.11 300.8 233.37 297.96 225.52 295.52C239.94 273.94 250.21 250.24 256 225.29C261.8 250.24 272.06 273.94 286.48 295.52C278.63 297.96 270.89 300.79 263.38 303.98Z" fill="white"/>
<path d="M457.13 182.09C448.77 159.25 436.65 138.12 421.11 119.29C389.89 81.47 346.41 55.31 298.67 45.63C270.72 39.97 241.26 39.97 213.31 45.63C165.57 55.31 122.09 81.46 90.87 119.29C75.33 138.12 63.21 159.25 54.85 182.09C46.2 205.73 41.81 230.59 41.81 255.99C41.81 274.82 44.26 293.54 49.09 311.63C52.17 323.18 56.25 334.53 61.21 345.36C62.49 348.15 65.77 349.38 68.57 348.12C94.77 336.32 122.73 330.34 151.68 330.34C160.47 330.34 169.3 330.93 178.04 332.07C152.06 354 121.1 369.03 87.85 375.77C85.98 376.15 84.43 377.46 83.75 379.25C83.07 381.03 83.35 383.04 84.49 384.57C99.09 404.09 116.76 420.88 137 434.46C146.92 441.12 157.45 446.97 168.3 451.85C195.95 464.3 225.45 470.61 255.98 470.61C286.51 470.61 316.02 464.3 343.66 451.85C354.51 446.97 365.03 441.12 374.96 434.46C395.2 420.88 412.87 404.1 427.47 384.57C428.61 383.04 428.89 381.03 428.21 379.25C427.53 377.46 425.98 376.15 424.11 375.77C390.85 369.03 359.9 353.99 333.92 332.07C342.66 330.93 351.48 330.34 360.28 330.34C389.23 330.34 417.19 336.32 443.39 348.12C446.18 349.38 449.47 348.14 450.75 345.36C455.71 334.52 459.79 323.17 462.87 311.63C467.7 293.54 470.15 274.82 470.15 255.99C470.15 230.59 465.76 205.72 457.11 182.09H457.13ZM368.77 425.21C359.36 431.52 349.39 437.07 339.11 441.69C312.91 453.49 284.95 459.47 256 459.47C227.05 459.47 199.09 453.49 172.89 441.69C162.61 437.06 152.63 431.52 143.23 425.21C126.44 413.95 111.53 400.37 98.79 384.75C133.58 376.16 165.68 358.89 192.25 334.43C200.52 336.11 208.69 338.3 216.58 340.96C229.26 345.24 241.58 350.83 253.2 357.57C254.06 358.07 255.03 358.32 256 358.32C256.97 358.32 257.93 358.07 258.8 357.57C270.43 350.83 282.75 345.24 295.42 340.96C303.31 338.3 311.48 336.1 319.75 334.43C346.32 358.89 378.42 376.17 413.21 384.75C400.47 400.36 385.55 413.95 368.77 425.21ZM452.11 308.75C449.66 317.93 446.54 326.98 442.83 335.72C416.68 324.75 388.94 319.2 360.3 319.2C346.95 319.2 333.54 320.45 320.43 322.93C310.72 324.76 301.1 327.28 291.85 330.4C279.48 334.58 267.44 339.93 256 346.33C244.56 339.93 232.51 334.57 220.15 330.4C210.9 327.28 201.29 324.76 191.57 322.93C178.46 320.46 165.05 319.2 151.7 319.2C123.05 319.2 95.32 324.76 69.17 335.72C65.46 326.98 62.34 317.93 59.89 308.75C55.31 291.6 52.98 273.85 52.98 255.99C52.98 159.52 121.35 75.65 215.54 56.56C242.03 51.19 269.98 51.19 296.47 56.56C390.66 75.65 459.03 159.52 459.03 255.99C459.03 273.85 456.71 291.6 452.12 308.75H452.11Z" fill="white"/>
</g>
<defs>
<clipPath id="clip0_1_2">
<rect width="512" height="512" fill="white"/>
</clipPath>
</defs>
</svg>
